<svg width="306" height="259" viewBox="0 0 306 259" fill="none" xmlns="http://www.w3.org/2000/svg">
<path fill-rule="evenodd" clip-rule="evenodd" d="M265.203 1.06299C237.972 2.26199 235.901 2.57099 232.533 5.93899C227.47 11.002 228.39 13.839 238.418 24.086L247.132 32.992L193.43 86.693L139.728 140.395L114.966 115.772C101.346 102.229 88.7632 90.422 87.0032 89.536C83.0702 87.554 78.6662 87.478 74.4212 89.318C72.6242 90.097 55.8902 106.104 36.5252 125.568C-1.34777 163.634 -1.02576 163.207 1.59824 171.966C3.05024 176.812 9.87524 183.595 14.7772 185.063C23.1812 187.581 23.7942 187.147 53.2062 157.873L80.2092 130.996L105.706 156.364C127.827 178.373 131.779 181.886 135.55 182.892C144.428 185.261 142.266 187.108 209.8 119.47L271.658 57.517L280.552 66.22C288.298 73.8 289.896 74.923 292.939 74.923C298.195 74.923 301.374 71.871 302.597 65.653C303.163 62.777 304.123 48.621 304.73 34.195C305.932 5.62899 305.702 3.74599 300.703 1.21699C297.958 -0.171008 293.664 -0.190009 265.203 1.06299ZM248.945 106.181L226.703 128.439V192.11C226.703 248.659 226.879 255.956 228.274 257.352C229.603 258.68 233.082 258.923 250.774 258.923C270.37 258.923 271.83 258.796 273.703 256.923C275.671 254.955 275.703 253.59 275.703 171.078C275.703 91.12 275.618 87.156 273.874 85.578C272.868 84.668 271.852 83.923 271.616 83.923C271.38 83.923 261.178 93.939 248.945 106.181ZM181.953 173.136L157.703 197.337V226.13C157.703 253.59 157.796 255.016 159.703 256.923C161.575 258.795 163.036 258.923 182.512 258.923C198.902 258.923 203.733 258.622 205.262 257.504C207.135 256.134 207.213 254.221 207.478 202.504C207.63 173.034 207.405 148.926 206.978 148.929C206.552 148.932 195.291 159.825 181.953 173.136ZM55.2802 181.845C40.1082 197.043 34.9352 200.833 26.4532 202.966L21.7032 204.16V229.97C21.7032 252.1 21.9272 256.004 23.2742 257.352C24.6052 258.682 28.1132 258.923 46.1192 258.923C65.5082 258.923 67.5412 258.76 69.0592 257.083C70.5682 255.414 70.7002 251.109 70.4642 211.07L70.2032 166.897L55.2802 181.845ZM89.7032 211.268C89.7032 252.959 89.8122 255.712 91.5322 257.268C93.1112 258.697 96.2242 258.923 114.377 258.923C133.467 258.923 135.545 258.755 137.048 257.094C138.5 255.489 138.703 252.018 138.703 228.722V202.179L134.495 201.506C125.785 200.113 121.728 197.3 106.195 181.883C97.9052 173.655 90.8032 166.923 90.4132 166.923C90.0222 166.923 89.7032 186.878 89.7032 211.268Z" fill="white"/>
</svg>
