<svg width="45" height="68" viewBox="0 0 45 68" fill="none" xmlns="http://www.w3.org/2000/svg">
<path fill-rule="evenodd" clip-rule="evenodd" d="M19.359 1.993C15.367 4.527 13.562 8.737 14.595 13.112C15.735 17.944 15.41 18.712 8.877 26.633C1.813 35.2 0 39.142 0 45.936C0 66.514 27.884 74.854 40.688 58.105C44.917 52.573 45.845 46.449 43.554 39.182L41.836 33.733L39.469 35.957C38.013 37.325 36.461 37.935 35.437 37.542C33.716 36.882 33.796 35.993 36.087 30.302C37.103 27.776 37.097 26.575 36.051 24.052C34.55 20.427 33.495 20.134 32 22.928C30.391 25.935 29 25.337 29 21.639C29 19.831 28.049 16.568 26.887 14.389C25.726 12.211 24.263 8.082 23.637 5.214L22.5 0L19.359 1.993ZM1.184 11.459C1.593 14.735 3.407 14.735 3.816 11.459C4.042 9.655 3.664 8.928 2.5 8.928C1.336 8.928 0.958 9.655 1.184 11.459ZM42 13.428C42 15.872 42.452 16.928 43.5 16.928C44.548 16.928 45 15.872 45 13.428C45 10.984 44.548 9.928 43.5 9.928C42.452 9.928 42 10.984 42 13.428ZM5.18 16.178C5.356 17.416 6.175 18.428 7 18.428C7.825 18.428 8.644 17.416 8.82 16.178C9.065 14.446 8.646 13.928 7 13.928C5.354 13.928 4.935 14.446 5.18 16.178ZM37.688 15.574C36.216 17.045 36.99 20.077 38.75 19.738C39.712 19.552 40.5 18.544 40.5 17.498C40.5 15.508 38.869 14.392 37.688 15.574ZM2.667 19.595C1.358 20.904 1.986 24.928 3.5 24.928C4.5 24.928 5 23.928 5 21.928C5 19.061 4.1 18.161 2.667 19.595ZM41 25.428C41 26.984 41.567 27.928 42.5 27.928C43.433 27.928 44 26.984 44 25.428C44 23.872 43.433 22.928 42.5 22.928C41.567 22.928 41 23.872 41 25.428Z" fill="white"/>
</svg>
