<svg width="67" height="62" viewBox="0 0 67 62" fill="none" xmlns="http://www.w3.org/2000/svg">
<path d="M13.162 2.26134e-07C12.5113 -0.000230318 11.8727 0.175823 11.3147 0.509328C10.7566 0.842833 10.3001 1.32124 9.99379 1.89339L0.422277 19.778C0.0952188 20.3891 -0.0467722 21.0817 0.0135452 21.7717C0.0738625 22.4617 0.333894 23.1194 0.762066 23.6649L24.375 53.7874C24.0793 52.5726 23.9299 51.327 23.9299 50.0769C23.9292 47.8 24.5828 45.5704 25.8134 43.6519C27.044 41.7334 28.8001 40.2062 30.874 39.2508L26.7918 26.2308H31.3048C31.7576 23.5686 32.9572 21.0884 34.7649 19.0769H25.8346L28.8257 7.15385H38.1771L40.2206 15.2949C42.5008 14.4032 44.9721 14.1077 47.3993 14.4365L45.5807 7.15385H51.6873L58.0667 19.0769H56.1668C57.7884 20.876 58.9242 23.0564 59.4676 25.4133C60.0109 27.7702 59.9438 30.2261 59.2727 32.55L66.2408 23.6649C66.6682 23.1189 66.9274 22.461 66.9868 21.771C67.0463 21.081 66.9035 20.3887 66.5758 19.778L57.0043 1.89339C56.6984 1.32196 56.2426 0.844013 55.6854 0.510554C55.1283 0.177095 54.4908 0.000633644 53.8409 2.26134e-07H13.162ZM8.93614 19.0769L15.3155 7.15385H21.427L18.4359 19.0769H8.93614ZM11.8842 26.2308H19.2734L24.1979 41.9358L11.8842 26.2308ZM55.0373 28.6154C55.0373 31.1451 54.0289 33.5713 52.2339 35.3601C50.4389 37.1489 48.0043 38.1538 45.4658 38.1538C42.9273 38.1538 40.4927 37.1489 38.6977 35.3601C36.9027 33.5713 35.8943 31.1451 35.8943 28.6154C35.8943 26.0856 36.9027 23.6595 38.6977 21.8707C40.4927 20.0819 42.9273 19.0769 45.4658 19.0769C48.0043 19.0769 50.4389 20.0819 52.2339 21.8707C54.0289 23.6595 55.0373 26.0856 55.0373 28.6154ZM62.216 50.0769C62.216 56.0146 57.4302 62 45.4658 62C33.5014 62 28.7157 56.0385 28.7157 50.0769C28.7157 48.1796 29.472 46.36 30.8182 45.0184C32.1645 43.6768 33.9904 42.9231 35.8943 42.9231H55.0373C56.9412 42.9231 58.7671 43.6768 60.1134 45.0184C61.4596 46.36 62.216 48.1796 62.216 50.0769Z" fill="white"/>
</svg>
