<svg width="42" height="52" viewBox="0 0 42 52" fill="none" xmlns="http://www.w3.org/2000/svg">
<path d="M21 0.333344L0 9.66668V23.6667C0 36.6167 8.96 48.7267 21 51.6667C33.04 48.7267 42 36.6167 42 23.6667V9.66668L21 0.333344ZM21 9.43334C22.3845 9.43334 23.7378 9.84389 24.889 10.6131C26.0401 11.3822 26.9373 12.4755 27.4672 13.7546C27.997 15.0336 28.1356 16.4411 27.8655 17.799C27.5954 19.1568 26.9287 20.4041 25.9497 21.3831C24.9708 22.3621 23.7235 23.0287 22.3656 23.2988C21.0078 23.5689 19.6003 23.4303 18.3212 22.9005C17.0421 22.3707 15.9489 21.4735 15.1797 20.3223C14.4105 19.1712 14 17.8178 14 16.4333C14 14.5768 14.7375 12.7964 16.0503 11.4836C17.363 10.1708 19.1435 9.43334 21 9.43334ZM21 27.8667C25.6667 27.8667 35 30.41 35 35.0533C33.4675 37.3636 31.3871 39.2588 28.9444 40.5697C26.5016 41.8807 23.7723 42.5668 21 42.5668C18.2277 42.5668 15.4984 41.8807 13.0556 40.5697C10.6129 39.2588 8.53247 37.3636 7 35.0533C7 30.41 16.3333 27.8667 21 27.8667Z" fill="black"/>
</svg>
